<?xml version="1.0" encoding="UTF-8" standalone="no"?>
<svg width="27px" height="44px" viewBox="0 0 27 44" version="1.1" xmlns="http://www.w3.org/2000/svg" xmlns:xlink="http://www.w3.org/1999/xlink" xmlns:sketch="http://www.bohemiancoding.com/sketch/ns">
    <!-- Generator: Sketch 3.3.2 (12043) - http://www.bohemiancoding.com/sketch -->
    <title>level-2</title>
    <desc>Created with Sketch.</desc>
    <defs>
        <filter x="-50%" y="-50%" width="200%" height="200%" filterUnits="objectBoundingBox" id="filter-1">
            <feOffset dx="0" dy="1" in="SourceAlpha" result="shadowOffsetInner1"></feOffset>
            <feGaussianBlur stdDeviation="0" in="shadowOffsetInner1" result="shadowBlurInner1"></feGaussianBlur>
            <feComposite in="shadowBlurInner1" in2="SourceAlpha" operator="arithmetic" k2="-1" k3="1" result="shadowInnerInner1"></feComposite>
            <feColorMatrix values="0 0 0 0 1   0 0 0 0 1   0 0 0 0 1  0 0 0 0.07 0" in="shadowInnerInner1" type="matrix" result="shadowMatrixInner1"></feColorMatrix>
            <feMerge>
                <feMergeNode in="SourceGraphic"></feMergeNode>
                <feMergeNode in="shadowMatrixInner1"></feMergeNode>
            </feMerge>
        </filter>
    </defs>
    <g id="Google-Maps-Icon" stroke="none" stroke-width="1" fill="none" fill-rule="evenodd" sketch:type="MSPage">
        <g id="Icon" sketch:type="MSArtboardGroup" transform="translate(-346.000000, -118.000000)">
            <g id="level-2" sketch:type="MSLayerGroup" transform="translate(346.393424, 118.000000)">
                <path d="M13,43.7916195 C13.0114323,43.8069708 13.021939,43.8147504 13.0314759,43.8147504 C13.7456823,43.8147504 13.6580986,42.7399459 13.7836555,41.1020732 C14.529846,31.3681176 25.7380565,20.0105749 25.7380565,12.9569562 C25.7380565,5.90333742 20.0926194,0.185249625 13.1286198,0.185249625 C13.085239,0.185249625 13.0423673,0.186942624 13,0.19030753 C12.9576327,0.186942624 12.914761,0.185249625 12.8713802,0.185249625 C5.90738062,0.185249625 0.26194351,5.90333742 0.26194351,12.9569562 C0.26194351,20.0105749 11.470154,31.3681176 12.2163445,41.1020732 C12.3419014,42.7399459 12.2543177,43.8147504 12.9685241,43.8147504 C12.978061,43.8147504 12.9885677,43.8069708 13,43.7916195 Z" id="PinMap" stroke="#4A4A4A" fill="#F8E81C" filter="url(#filter-1)" sketch:type="MSShapeGroup"></path>
                <ellipse id="Oval-3" fill-opacity="0.75" fill="#000000" sketch:type="MSShapeGroup" cx="12.8077987" cy="13.018583" rx="4.27631579" ry="4.16666667"></ellipse>
            </g>
        </g>
    </g>
</svg>